<svg xmlns="http://www.w3.org/2000/svg" version="1.1" xmlns:xlink="http://www.w3.org/1999/xlink" xmlns:svgjs="http://svgjs.dev/svgjs" width="2000" height="1500" viewBox="0 0 2000 1500"><rect width="2000" height="1500" fill="#ffffff"></rect><g transform="matrix(0.75,0,0,0.75,249.090909090909,282.7536437246963)"><svg viewBox="0 0 396 247" data-background-color="#ffffff" preserveAspectRatio="xMidYMid meet" height="1247" width="2000" xmlns="http://www.w3.org/2000/svg" xmlns:xlink="http://www.w3.org/1999/xlink"><g id="tight-bounds" transform="matrix(1,0,0,1,0.2400000000000091,-0.09999999999999432)"><svg viewBox="0 0 395.52 247.2" height="247.2" width="395.52"><g><svg></svg></g><g><svg viewBox="0 0 395.52 247.2" height="247.2" width="395.52"><g transform="matrix(1,0,0,1,75.54432,105.67220289519398)"><svg viewBox="0 0 244.43135999999998 35.855594209612036" height="35.855594209612036" width="244.43135999999998"><g><svg viewBox="0 0 244.43135999999998 35.855594209612036" height="35.855594209612036" width="244.43135999999998"><g><svg viewBox="0 0 244.43135999999998 35.855594209612036" height="35.855594209612036" width="244.43135999999998"><g><svg viewBox="0 0 244.43135999999998 35.855594209612036" height="35.855594209612036" width="244.43135999999998"><g id="textblocktransform"><svg viewBox="0 0 244.43135999999998 35.855594209612036" height="35.855594209612036" width="244.43135999999998" id="textblock"><g><svg viewBox="0 0 244.43135999999998 35.855594209612036" height="35.855594209612036" width="244.43135999999998"><g transform="matrix(1,0,0,1,0,0)"><svg width="244.43135999999998" viewBox="3.25 -37.5 259.0199890136719 38" height="35.855594209612036" data-palette-color="#0061b5"><path d="M15.8 0L3.25 0 3.25-1 7.2-2.5 7.2-30.5 3.25-32 3.25-33 14.45-33Q17.7-33 20.35-32.18 23-31.35 24.55-29.73 26.1-28.1 26.1-25.6L26.1-25.6Q26.1-23 24.38-20.83 22.65-18.65 19.45-17.7L19.45-17.7Q23.95-17.1 26.45-15 28.95-12.9 28.95-9.6L28.95-9.6Q28.95-6.85 27.23-4.67 25.5-2.5 22.55-1.25 19.6 0 15.8 0L15.8 0ZM13.9-30.65L13.9-30.65 11.1-30.65 11.1-18.2 14.2-18.2Q17.75-18.2 19.85-19.8 21.95-21.4 21.95-24.3L21.95-24.3Q21.95-27.45 19.9-29.05 17.85-30.65 13.9-30.65ZM15.8-15.85L15.8-15.85 11.1-15.85 11.1-2.3 16.15-2.3Q20.1-2.3 22.45-4.23 24.8-6.15 24.8-9.1L24.8-9.1Q24.8-12.6 22.43-14.23 20.05-15.85 15.8-15.85ZM43.05 0.5L43.05 0.5Q40.1 0.5 38.17-1.1 36.25-2.7 36.25-5.75L36.25-5.75 36.25-20.45 32.95-21.7 32.95-22.5 39.65-22.5 39.65-7.7Q39.65-5.15 41.1-3.83 42.55-2.5 44.9-2.5L44.9-2.5Q46.3-2.5 47.92-3.05 49.55-3.6 50.55-4.7L50.55-4.7 50.55-20.45 46.8-21.7 46.8-22.5 53.95-22.5 53.95-2 57.5-0.8 57.5 0 50.55 0 50.55-3.1 50.35-3.1Q48.45-1.2 46.75-0.35 45.05 0.5 43.05 0.5ZM71.2 0L61.35 0 61.35-0.8 64.5-2.05 64.5-33.15 61.25-35.1 61.25-35.6 67.5-37.5 67.9-37.5 67.9-2.05 71.2-0.8 71.2 0ZM85.64 0L75.79 0 75.79-0.8 78.94-2.05 78.94-33.15 75.69-35.1 75.69-35.6 81.94-37.5 82.34-37.5 82.34-2.05 85.64-0.8 85.64 0ZM95.19-29.8L95.19-29.8Q94.09-29.8 93.37-30.53 92.64-31.25 92.64-32.35L92.64-32.35Q92.64-33.5 93.37-34.2 94.09-34.9 95.19-34.9L95.19-34.9Q96.34-34.9 97.04-34.2 97.74-33.5 97.74-32.35L97.74-32.35Q97.74-31.25 97.04-30.53 96.34-29.8 95.19-29.8ZM100.59 0L90.74 0 90.74-0.8 93.89-2.05 93.89-18.65 90.64-20.6 90.64-21.1 96.89-23 97.29-23 97.29-2.05 100.59-0.8 100.59 0ZM116.44 0.5L116.44 0.5Q113.24 0.5 110.84-1.05 108.44-2.6 107.09-5.25 105.74-7.9 105.74-11.25L105.74-11.25Q105.74-14.6 107.09-17.25 108.44-19.9 110.84-21.45 113.24-23 116.44-23L116.44-23Q119.64-23 122.04-21.45 124.44-19.9 125.79-17.25 127.14-14.6 127.14-11.25L127.14-11.25Q127.14-7.9 125.79-5.25 124.44-2.6 122.04-1.05 119.64 0.5 116.44 0.5ZM117.14-1.25L117.14-1.25Q119.24-1.25 120.64-2.55 122.04-3.85 122.74-5.93 123.44-8 123.44-10.25L123.44-10.25Q123.44-13.1 122.61-15.63 121.79-18.15 120.11-19.73 118.44-21.3 115.84-21.3L115.84-21.3Q113.74-21.3 112.31-20.05 110.89-18.8 110.16-16.75 109.44-14.7 109.44-12.3L109.44-12.3Q109.44-9.4 110.29-6.88 111.14-4.35 112.84-2.8 114.54-1.25 117.14-1.25ZM142.34 0L132.24 0 132.24-0.8 135.39-2.05 135.39-18.65 132.14-20.35 132.14-20.9 137.99-23 138.39-23 138.74-19.35 138.94-19.35Q140.84-21.2 142.56-22.1 144.29-23 146.39-23L146.39-23Q149.39-23 151.34-21.4 153.29-19.8 153.29-16.75L153.29-16.75 153.29-2.05 156.44-0.8 156.44 0 146.34 0 146.34-0.8 149.89-2.05 149.89-14.8Q149.89-17.35 148.39-18.68 146.89-20 144.54-20L144.54-20Q143.14-20 141.46-19.43 139.79-18.85 138.79-17.8L138.79-17.8 138.79-2.05 142.34-0.8 142.34 0ZM182.03 0L168.13 0 168.13-1 173.13-2.5 173.13-30.65 164.33-30.65 161.48-23.3 160.58-23.3 160.58-33 189.58-33 189.58-23.3 188.68-23.3 185.83-30.65 177.03-30.65 177.03-2.5 182.03-1 182.03 0ZM204.83 0L194.63 0 194.63-0.8 197.78-2.05 197.78-18.65 194.53-20.35 194.53-20.9 200.38-23 200.78-23 201.13-18.65 201.28-18.65Q202.78-20.6 203.81-21.53 204.83-22.45 205.68-22.73 206.53-23 207.38-23L207.38-23Q207.78-23 208.28-22.88 208.78-22.75 209.08-22.6L209.08-22.6Q209.63-22.4 209.98-22.1 210.33-21.8 210.33-21.45L210.33-21.45Q210.33-21.3 210.31-21.1 210.28-20.9 210.18-20.7L210.18-20.7 209.38-18.7 209.13-18.7 207.63-19.35Q206.73-19.7 205.63-19.7L205.63-19.7Q204.38-19.7 203.28-19.05 202.18-18.4 201.18-16.9L201.18-16.9 201.18-2.05 204.83-0.8 204.83 0ZM218.73 0.5L218.73 0.5Q216.38 0.5 214.83-0.88 213.28-2.25 213.28-4.7L213.28-4.7Q213.28-7.15 215.08-8.85 216.88-10.55 221.03-11.55L221.03-11.55 225.88-12.75 225.88-16.6Q225.88-18.5 224.4-19.75 222.93-21 221.13-21L221.13-21Q219.13-21 218.33-20.05 217.53-19.1 217.53-17.45L217.53-17.45 217.53-15.8 217.28-15.55 215.18-15.55Q214.43-15.55 214.15-15.78 213.88-16 213.88-16.85L213.88-16.85Q213.88-17.9 214.53-19 215.18-20.1 216.48-20.9L216.48-20.9Q217.88-21.8 219.35-22.4 220.83-23 222.33-23L222.33-23Q224.23-23 225.78-22.48 227.33-21.95 228.28-20.75 229.23-19.55 229.23-17.55L229.23-17.55 229.23-2.8Q229.63-2.4 230.23-2.2 230.83-2 231.78-2L231.78-2 233.98-2 234.08-1.9 234.08-1.8Q233.58-0.95 232.55-0.23 231.53 0.5 229.98 0.5L229.98 0.5Q228.38 0.5 227.43-0.35 226.48-1.2 226.13-2.5L226.13-2.5 225.88-2.5Q224.58-1.2 222.7-0.35 220.83 0.5 218.73 0.5ZM216.63-5.65L216.63-5.65Q216.63-3.9 217.68-3.03 218.73-2.15 220.63-2.15L220.63-2.15Q221.88-2.15 223.18-2.45 224.48-2.75 225.88-3.45L225.88-3.45 225.88-11.3Q221.83-10.5 219.85-9.65 217.88-8.8 217.25-7.83 216.63-6.85 216.63-5.65ZM241.98-29.8L241.98-29.8Q240.88-29.8 240.15-30.53 239.43-31.25 239.43-32.35L239.43-32.35Q239.43-33.5 240.15-34.2 240.88-34.9 241.98-34.9L241.98-34.9Q243.13-34.9 243.83-34.2 244.53-33.5 244.53-32.35L244.53-32.35Q244.53-31.25 243.83-30.53 243.13-29.8 241.98-29.8ZM247.38 0L237.53 0 237.53-0.8 240.68-2.05 240.68-18.65 237.43-20.6 237.43-21.1 243.68-23 244.08-23 244.08-2.05 247.38-0.8 247.38 0ZM262.27 0L252.42 0 252.42-0.8 255.57-2.05 255.57-33.15 252.32-35.1 252.32-35.6 258.57-37.5 258.97-37.5 258.97-2.05 262.27-0.8 262.27 0Z" opacity="1" transform="matrix(1,0,0,1,0,0)" fill="#0061b5" class="wordmark-text-0" data-fill-palette-color="primary" id="text-0"></path></svg></g></svg></g></svg></g></svg></g></svg></g></svg></g></svg></g><g><path d="M0 123.6c0-68.262 55.338-123.6 123.6-123.6 60.698 0 111.177 43.752 121.619 101.44h-1.644c-10.422-56.79-60.173-99.823-119.975-99.823-67.369 0-121.983 54.614-121.983 121.983 0 67.369 54.614 121.983 121.983 121.983 59.802 0 109.553-43.034 119.975-99.823l1.644 0c-10.442 57.687-60.921 101.44-121.619 101.44-68.262 0-123.6-55.338-123.6-123.6z" fill="#93bbea" stroke="transparent" data-fill-palette-color="tertiary"></path></g></svg></g><defs></defs></svg><rect width="395.52" height="247.2" fill="none" stroke="none" visibility="hidden"></rect></g></svg></g></svg>